<svg width="32" height="23" viewBox="0 0 32 23" fill="none" xmlns="http://www.w3.org/2000/svg">
<circle cx="18.3649" cy="18.3918" r="1.60811" fill="#282832"/>
<circle cx="29.1622" cy="18.3918" r="1.60811" fill="#282832"/>
<path d="M17.1883 3.08856L15.0533 3.02926C14.4994 3.01387 14.062 3.4957 14.1307 4.04556C14.1873 4.49818 14.572 4.83784 15.0282 4.83784H16.1382C16.5118 4.83784 16.8477 5.06529 16.9865 5.41216L19.7432 11.2703C19.8788 11.6091 19.7701 11.9968 19.4781 12.2157L19.0541 12.5338C17.5823 13.616 18.1227 15.9341 19.9213 16.2539L20.1293 16.2908C20.2546 16.3131 20.3816 16.3243 20.5088 16.3243H30.3682C30.844 16.3243 31.2297 15.9386 31.2297 15.4628C31.2297 14.987 30.844 14.6013 30.3682 14.6013H20.3176C19.779 14.5295 19.6489 13.8093 20.1283 13.5536L20.2192 13.5052C20.2842 13.4705 20.3551 13.4483 20.4283 13.4396L31 12.1892C31.4614 12.1233 31.8041 11.7282 31.8041 11.2621V6.39259C31.8041 6.13257 31.7008 5.88319 31.5169 5.69932C31.333 5.51546 31.0836 5.41216 30.8236 5.41216H19.7432C19.1945 5.41216 18.7073 5.06101 18.5337 4.5404L18.3649 4.03378C18.229 3.4905 17.7481 3.10411 17.1883 3.08856Z" fill="#282832"/>
<path d="M12.5156 11.9609H5.48438C5.21094 11.9609 4.98828 11.875 4.81641 11.7031C4.67578 11.5312 4.60547 11.3438 4.60547 11.1406C4.60547 11.0156 4.67188 10.8477 4.80469 10.6367C4.94531 10.4258 5.17188 10.3203 5.48438 10.3203H12.5156C12.75 10.3203 12.9531 10.4102 13.125 10.5898C13.3047 10.7617 13.3945 10.9453 13.3945 11.1406C13.3945 11.3281 13.3203 11.5117 13.1719 11.6914C13.0234 11.8711 12.8047 11.9609 12.5156 11.9609Z" fill="#282832"/>
</svg>
