<svg width="32" height="23" viewBox="0 0 32 23" fill="none" xmlns="http://www.w3.org/2000/svg">
<circle cx="18.3649" cy="18.3918" r="1.60811" fill="#282832"/>
<circle cx="29.1622" cy="18.3918" r="1.60811" fill="#282832"/>
<path d="M17.1883 3.08856L15.0533 3.02926C14.4994 3.01387 14.062 3.4957 14.1307 4.04556C14.1873 4.49818 14.572 4.83784 15.0282 4.83784H16.1382C16.5118 4.83784 16.8477 5.06529 16.9865 5.41216L19.7432 11.2703C19.8788 11.6091 19.7701 11.9968 19.4781 12.2157L19.0541 12.5338C17.5823 13.616 18.1227 15.9341 19.9213 16.2539L20.1293 16.2908C20.2546 16.3131 20.3816 16.3243 20.5088 16.3243H30.3682C30.844 16.3243 31.2297 15.9386 31.2297 15.4628C31.2297 14.987 30.844 14.6013 30.3682 14.6013H20.3176C19.779 14.5295 19.6489 13.8093 20.1283 13.5536L20.2192 13.5052C20.2842 13.4705 20.3551 13.4483 20.4283 13.4396L31 12.1892C31.4614 12.1233 31.8041 11.7282 31.8041 11.2621V6.39259C31.8041 6.13257 31.7008 5.88319 31.5169 5.69932C31.333 5.51546 31.0836 5.41216 30.8236 5.41216H19.7432C19.1945 5.41216 18.7073 5.06101 18.5337 4.5404L18.3649 4.03378C18.229 3.4905 17.7481 3.10411 17.1883 3.08856Z" fill="#282832"/>
<path d="M9.9668 10.332H13.4824C13.6934 10.332 13.8926 10.4258 14.0801 10.6133C14.2676 10.8008 14.3613 11 14.3613 11.2109C14.3613 11.4219 14.2852 11.6211 14.1328 11.8086C13.9805 11.9961 13.7637 12.0898 13.4824 12.0898H9.9668V15.6055C9.9668 15.8867 9.88477 16.1094 9.7207 16.2734C9.55664 16.4141 9.3457 16.4844 9.08789 16.4844C8.98242 16.4844 8.77734 16.4141 8.47266 16.2734C8.29688 16.1328 8.20898 15.9102 8.20898 15.6055V12.0898H4.69336C4.42383 12.0898 4.20703 12.0078 4.04297 11.8438C3.89062 11.6562 3.81445 11.4453 3.81445 11.2109C3.81445 11.082 3.88477 10.9062 4.02539 10.6836C4.17773 10.4492 4.40039 10.332 4.69336 10.332H8.20898V6.81641C8.20898 6.62891 8.29688 6.43555 8.47266 6.23633C8.64844 6.03711 8.85352 5.9375 9.08789 5.9375C9.29883 5.9375 9.49805 6.01367 9.68555 6.16602C9.87305 6.31836 9.9668 6.53516 9.9668 6.81641V10.332Z" fill="#282832"/>
</svg>
