<svg width="30" height="30" viewBox="0 0 30 30" fill="none" xmlns="http://www.w3.org/2000/svg">
<circle cx="15" cy="15" r="15" fill="#282832"/>
<circle cx="15" cy="15" r="13" stroke="#282832" stroke-width="4"/>
<path d="M18.25 13.1562C18.25 14.1923 18.678 15.1858 19.4399 15.9184C20.2017 16.6509 21.2351 17.0625 22.3125 17.0625C23.3899 17.0625 24.4233 16.6509 25.1851 15.9184C25.947 15.1858 26.375 14.1923 26.375 13.1562C26.375 13.0349 26.3457 12.9153 26.2893 12.8068L23.0393 6.5568C22.9518 6.38856 22.8041 6.25632 22.6234 6.18436C22.4427 6.1124 22.241 6.10555 22.0554 6.16508L16.9117 7.81352C16.6267 7.46519 16.2459 7.20069 15.8125 7.05008V4.5625H14.1875V7.05008C13.7214 7.20858 13.3166 7.49981 13.027 7.88501C12.7373 8.2702 12.5766 8.7311 12.5661 9.20633L7.43042 10.8524C7.22604 10.9179 7.05708 11.0589 6.96072 11.2441L3.71072 17.4941C3.65429 17.6027 3.62495 17.7224 3.625 17.8438C3.625 18.8798 4.05301 19.8733 4.81488 20.6059C5.57675 21.3384 6.61006 21.75 7.6875 21.75C8.76494 21.75 9.79825 21.3384 10.5601 20.6059C11.322 19.8733 11.75 18.8798 11.75 17.8438C11.75 17.7224 11.7207 17.6028 11.6643 17.4943L8.83312 12.05L13.0882 10.6862C13.373 11.0347 13.7539 11.2991 14.1875 11.4495V24.875H6.875V26.4375H23.125V24.875H15.8125V11.4499C16.2785 11.2914 16.6833 11.0002 16.973 10.615C17.2626 10.2298 17.4234 9.7689 17.4339 9.29367L20.7083 8.24383L18.3358 12.807C18.2794 12.9154 18.25 13.035 18.25 13.1562ZM7.6875 20.1875C7.18515 20.1859 6.69563 20.0348 6.2861 19.7551C5.87658 19.4753 5.56711 19.0806 5.40015 18.625H9.97453C9.80759 19.0805 9.49817 19.4752 9.0887 19.755C8.67924 20.0347 8.18979 20.1858 7.6875 20.1875V20.1875ZM9.62296 17.0625H5.75204L7.6875 13.3409L9.62296 17.0625ZM15 10.0312C14.8393 10.0312 14.6822 9.98543 14.5486 9.89959C14.415 9.81374 14.3108 9.69173 14.2493 9.54897C14.1879 9.40622 14.1718 9.24913 14.2031 9.09759C14.2345 8.94604 14.3118 8.80683 14.4255 8.69757C14.5391 8.58831 14.6839 8.51391 14.8415 8.48376C14.9991 8.45362 15.1625 8.46909 15.3109 8.52822C15.4594 8.58735 15.5863 8.68748 15.6756 8.81596C15.7648 8.94444 15.8125 9.09548 15.8125 9.25C15.8123 9.45714 15.7266 9.65575 15.5743 9.80222C15.422 9.94869 15.2154 10.0311 15 10.0312V10.0312ZM22.3125 15.5C21.8102 15.4983 21.3206 15.3473 20.9111 15.0675C20.5016 14.7878 20.1921 14.3931 20.0251 13.9375H24.5995C24.4326 14.393 24.1232 14.7877 23.7137 15.0675C23.3042 15.3472 22.8148 15.4983 22.3125 15.5V15.5ZM22.3125 8.65336L24.248 12.375H20.377L22.3125 8.65336Z" fill="white"/>
</svg>
