<svg width="30" height="30" viewBox="0 0 30 30" fill="none" xmlns="http://www.w3.org/2000/svg">
<circle cx="15" cy="15" r="15" fill="#282832"/>
<circle cx="15" cy="15" r="13" stroke="#282832" stroke-width="4"/>
<path d="M13.7059 5H15.8897V7.37273L22.2794 5L25.8382 11.4636C25.8382 11.4636 26.0809 13.8364 24.3015 15.0636C22.5221 16.2909 20.6618 16.1273 19.0441 14.8182C17.4265 13.5091 17.9118 11.4636 17.9118 11.4636L19.7721 8.10909L15.8897 9.33636V20.4636H20.6618V23H8.93382V20.4636H13.7868V10.0727L9.82353 11.4636C9.82353 11.4636 11.0368 13.9182 11.7647 15.4727C11.8456 15.6455 11.9265 15.8818 11.9265 15.8818C11.9199 16.2684 11.7647 18.5 10.2279 19.4C8.69118 20.3 7.72059 20.3 5.86029 19.4C4 18.5 4 16.0455 4 16.0455L4.08088 15.8L7.07353 10.4L13.7059 8.10909V5Z" fill="#F9F9F9"/>
<path d="M6.10291 15.8L8.04408 12.0364L10.0661 15.8H6.10291Z" fill="#282832"/>
<path d="M19.8529 11.5455L21.7941 7.78186L23.8161 11.5455H19.8529Z" fill="#282832"/>
</svg>
