<svg width="36" height="23" viewBox="0 0 36 23" fill="none" xmlns="http://www.w3.org/2000/svg">
<path d="M24.2647 2H26.3493V4.24091L32.4485 2L35.8456 8.10455C35.8456 8.10455 36.0772 10.3455 34.3787 11.5045C32.6801 12.6636 30.9044 12.5091 29.3603 11.2727C27.8162 10.0364 28.2794 8.10455 28.2794 8.10455L30.0551 4.93636L26.3493 6.09545V16.6045H30.9044V19H19.7096V16.6045H24.3419V6.79091L20.5588 8.10455C20.5588 8.10455 21.7169 10.4227 22.4118 11.8909C22.489 12.054 22.5662 12.2773 22.5662 12.2773C22.5599 12.6424 22.4118 14.75 20.9449 15.6C19.4779 16.45 18.5515 16.45 16.7757 15.6C15 14.75 15 12.4318 15 12.4318L15.0772 12.2L17.9338 7.1L24.2647 4.93636V2Z" fill="#282832"/>
<path d="M17.0073 12.2001L18.8603 8.64551L20.7904 12.2001H17.0073Z" fill="#F9F9F9"/>
<path d="M30.1323 8.18174L31.9853 4.6272L33.9154 8.18174H30.1323Z" fill="#F9F9F9"/>
<path d="M12.5156 11.9609H5.48438C5.21094 11.9609 4.98828 11.875 4.81641 11.7031C4.67578 11.5312 4.60547 11.3438 4.60547 11.1406C4.60547 11.0156 4.67188 10.8477 4.80469 10.6367C4.94531 10.4258 5.17188 10.3203 5.48438 10.3203H12.5156C12.75 10.3203 12.9531 10.4102 13.125 10.5898C13.3047 10.7617 13.3945 10.9453 13.3945 11.1406C13.3945 11.3281 13.3203 11.5117 13.1719 11.6914C13.0234 11.8711 12.8047 11.9609 12.5156 11.9609Z" fill="#282832"/>
</svg>
