<svg width="36" height="23" viewBox="0 0 36 23" fill="none" xmlns="http://www.w3.org/2000/svg">
<path d="M24.2647 2H26.3493V4.24091L32.4485 2L35.8456 8.10455C35.8456 8.10455 36.0772 10.3455 34.3787 11.5045C32.6801 12.6636 30.9044 12.5091 29.3603 11.2727C27.8162 10.0364 28.2794 8.10455 28.2794 8.10455L30.0551 4.93636L26.3493 6.09545V16.6045H30.9044V19H19.7096V16.6045H24.3419V6.79091L20.5588 8.10455C20.5588 8.10455 21.7169 10.4227 22.4118 11.8909C22.489 12.054 22.5662 12.2773 22.5662 12.2773C22.5599 12.6424 22.4118 14.75 20.9449 15.6C19.4779 16.45 18.5515 16.45 16.7757 15.6C15 14.75 15 12.4318 15 12.4318L15.0772 12.2L17.9338 7.1L24.2647 4.93636V2Z" fill="#282832"/>
<path d="M17.0073 12.2001L18.8603 8.64551L20.7904 12.2001H17.0073Z" fill="#F9F9F9"/>
<path d="M30.1323 8.18174L31.9853 4.6272L33.9154 8.18174H30.1323Z" fill="#F9F9F9"/>
<path d="M9.9668 10.332H13.4824C13.6934 10.332 13.8926 10.4258 14.0801 10.6133C14.2676 10.8008 14.3613 11 14.3613 11.2109C14.3613 11.4219 14.2852 11.6211 14.1328 11.8086C13.9805 11.9961 13.7637 12.0898 13.4824 12.0898H9.9668V15.6055C9.9668 15.8867 9.88477 16.1094 9.7207 16.2734C9.55664 16.4141 9.3457 16.4844 9.08789 16.4844C8.98242 16.4844 8.77734 16.4141 8.47266 16.2734C8.29688 16.1328 8.20898 15.9102 8.20898 15.6055V12.0898H4.69336C4.42383 12.0898 4.20703 12.0078 4.04297 11.8438C3.89062 11.6562 3.81445 11.4453 3.81445 11.2109C3.81445 11.082 3.88477 10.9062 4.02539 10.6836C4.17773 10.4492 4.40039 10.332 4.69336 10.332H8.20898V6.81641C8.20898 6.62891 8.29688 6.43555 8.47266 6.23633C8.64844 6.03711 8.85352 5.9375 9.08789 5.9375C9.29883 5.9375 9.49805 6.01367 9.68555 6.16602C9.87305 6.31836 9.9668 6.53516 9.9668 6.81641V10.332Z" fill="#282832"/>
</svg>
