<svg width="36" height="23" viewBox="0 0 36 23" fill="none" xmlns="http://www.w3.org/2000/svg">
<path d="M29.4145 2.56689C32.1349 2.56689 34.3379 4.67764 34.3379 7.27959C34.3379 11.9923 29.4145 14.6756 24.4973 19.3883C19.5797 14.6756 14.6621 11.9923 14.6621 7.27963C14.6621 4.67769 16.8651 2.56694 19.5797 2.56694C22.0383 2.56694 23.2678 3.74522 24.4973 6.10135C25.7264 3.74522 26.9559 2.56689 29.4145 2.56689Z" fill="#282832"/>
<path d="M12.5156 11.9609H5.48438C5.21094 11.9609 4.98828 11.875 4.81641 11.7031C4.67578 11.5312 4.60547 11.3438 4.60547 11.1406C4.60547 11.0156 4.67188 10.8477 4.80469 10.6367C4.94531 10.4258 5.17188 10.3203 5.48438 10.3203H12.5156C12.75 10.3203 12.9531 10.4102 13.125 10.5898C13.3047 10.7617 13.3945 10.9453 13.3945 11.1406C13.3945 11.3281 13.3203 11.5117 13.1719 11.6914C13.0234 11.8711 12.8047 11.9609 12.5156 11.9609Z" fill="#282832"/>
</svg>
