<svg width="36" height="23" viewBox="0 0 36 23" fill="none" xmlns="http://www.w3.org/2000/svg">
<path d="M29.4145 2.56689C32.1349 2.56689 34.3379 4.67764 34.3379 7.27959C34.3379 11.9923 29.4145 14.6756 24.4973 19.3883C19.5797 14.6756 14.6621 11.9923 14.6621 7.27963C14.6621 4.67769 16.8651 2.56694 19.5797 2.56694C22.0383 2.56694 23.2678 3.74522 24.4973 6.10135C25.7264 3.74522 26.9559 2.56689 29.4145 2.56689Z" fill="#282832"/>
<path d="M9.9668 10.332H13.4824C13.6934 10.332 13.8926 10.4258 14.0801 10.6133C14.2676 10.8008 14.3613 11 14.3613 11.2109C14.3613 11.4219 14.2852 11.6211 14.1328 11.8086C13.9805 11.9961 13.7637 12.0898 13.4824 12.0898H9.9668V15.6055C9.9668 15.8867 9.88477 16.1094 9.7207 16.2734C9.55664 16.4141 9.3457 16.4844 9.08789 16.4844C8.98242 16.4844 8.77734 16.4141 8.47266 16.2734C8.29688 16.1328 8.20898 15.9102 8.20898 15.6055V12.0898H4.69336C4.42383 12.0898 4.20703 12.0078 4.04297 11.8438C3.89062 11.6562 3.81445 11.4453 3.81445 11.2109C3.81445 11.082 3.88477 10.9062 4.02539 10.6836C4.17773 10.4492 4.40039 10.332 4.69336 10.332H8.20898V6.81641C8.20898 6.62891 8.29688 6.43555 8.47266 6.23633C8.64844 6.03711 8.85352 5.9375 9.08789 5.9375C9.29883 5.9375 9.49805 6.01367 9.68555 6.16602C9.87305 6.31836 9.9668 6.53516 9.9668 6.81641V10.332Z" fill="#282832"/>
</svg>
