<svg width="30" height="30" viewBox="0 0 30 30" fill="none" xmlns="http://www.w3.org/2000/svg">
<circle cx="15" cy="15" r="13" fill="#282832" stroke="#282832" stroke-width="4"/>
<circle cx="9.36486" cy="22.3919" r="1.60811" fill="#F9F9F9"/>
<circle cx="20.1622" cy="22.3919" r="1.60811" fill="#F9F9F9"/>
<path d="M8.1883 7.08856L6.05329 7.02926C5.49936 7.01387 5.06196 7.4957 5.13069 8.04556C5.18727 8.49818 5.57203 8.83784 6.02817 8.83784H7.13819C7.51178 8.83784 7.84774 9.06529 7.98649 9.41216L10.7432 15.2703C10.8788 15.6091 10.7701 15.9968 10.4781 16.2157L10.0541 16.5338C8.58229 17.616 9.12272 19.9341 10.9213 20.2539L11.1293 20.2908C11.2546 20.3131 11.3816 20.3243 11.5088 20.3243H21.3682C21.844 20.3243 22.2297 19.9386 22.2297 19.4628C22.2297 18.987 21.844 18.6013 21.3682 18.6013H11.3176C10.779 18.5295 10.6489 17.8093 11.1283 17.5536L11.2192 17.5052C11.2842 17.4705 11.3551 17.4483 11.4283 17.4396L22 16.1892C22.4614 16.1233 22.8041 15.7282 22.8041 15.2621V10.3926C22.8041 10.1326 22.7008 9.88319 22.5169 9.69932C22.333 9.51546 22.0836 9.41216 21.8236 9.41216H10.7432C10.1945 9.41216 9.70727 9.06101 9.53374 8.5404L9.36486 8.03378C9.22904 7.4905 8.74809 7.10411 8.1883 7.08856Z" fill="#F9F9F9"/>
</svg>
