<svg width="200" height="50" viewBox="0 0 200 50" fill="none" xmlns="http://www.w3.org/2000/svg">
<g filter="url(#filter0_i_113_525)">
<rect width="200" height="50" rx="25" fill="#EFEFF2"/>
</g>
<path d="M159.313 33.625C157.458 33.625 155.646 33.0752 154.104 32.045C152.562 31.0149 151.361 29.5507 150.651 27.8377C149.942 26.1246 149.756 24.2396 150.118 22.421C150.479 20.6025 151.372 18.932 152.683 17.6209C153.994 16.3098 155.665 15.4169 157.484 15.0551C159.302 14.6934 161.187 14.8791 162.9 15.5886C164.613 16.2982 166.077 17.4998 167.108 19.0415C168.138 20.5832 168.688 22.3958 168.688 24.25C168.688 26.7364 167.7 29.121 165.942 30.8791C164.183 32.6373 161.799 33.625 159.313 33.625ZM159.313 16.75C157.829 16.75 156.379 17.1899 155.146 18.014C153.912 18.8381 152.951 20.0094 152.383 21.3799C151.816 22.7503 151.667 24.2583 151.957 25.7132C152.246 27.168 152.96 28.5044 154.009 29.5533C155.058 30.6022 156.394 31.3165 157.849 31.6059C159.304 31.8953 160.812 31.7468 162.183 31.1791C163.553 30.6114 164.724 29.6501 165.549 28.4168C166.373 27.1834 166.813 25.7334 166.813 24.25C166.813 22.2609 166.022 20.3532 164.616 18.9467C163.209 17.5402 161.302 16.75 159.313 16.75Z" fill="#101820"/>
<path d="M175.25 40.8813C174.588 40.8821 173.948 40.6498 173.441 40.225L167.694 35.4063C167.411 35.1687 167.177 34.8776 167.006 34.5497C166.836 34.2218 166.731 33.8635 166.699 33.4953C166.634 32.7516 166.867 32.0125 167.347 31.4406C167.827 30.8688 168.514 30.5109 169.258 30.4459C170.002 30.3808 170.741 30.6139 171.313 31.0938L177.059 35.9125C177.502 36.2834 177.82 36.7818 177.97 37.3397C178.12 37.8977 178.094 38.4883 177.896 39.0311C177.699 39.574 177.339 40.0428 176.865 40.3738C176.392 40.7048 175.828 40.882 175.25 40.8813ZM169.503 32.3125H169.419C169.233 32.3282 169.056 32.3989 168.91 32.5158C168.765 32.6327 168.657 32.7903 168.602 32.9685C168.547 33.1467 168.546 33.3374 168.599 33.5162C168.653 33.6949 168.759 33.8536 168.903 33.9719L174.65 38.7906C174.744 38.8701 174.853 38.9303 174.97 38.9676C175.088 39.005 175.211 39.0189 175.334 39.0084C175.457 38.998 175.577 38.9634 175.686 38.9067C175.795 38.8501 175.893 38.7724 175.972 38.6781C176.051 38.5838 176.111 38.4748 176.148 38.3574C176.185 38.24 176.198 38.1164 176.188 37.9938C176.176 37.8705 176.14 37.7507 176.083 37.6413C176.025 37.5318 175.946 37.435 175.85 37.3563L170.103 32.5281C169.934 32.3884 169.722 32.3121 169.503 32.3125Z" fill="#101820"/>
<path d="M167.75 32.6875C167.531 32.6879 167.319 32.6117 167.15 32.4719L164.938 30.6438C164.746 30.4846 164.626 30.256 164.603 30.0081C164.58 29.7602 164.657 29.5133 164.816 29.3219C164.975 29.1304 165.203 29.01 165.451 28.9872C165.699 28.9643 165.946 29.0409 166.138 29.2L168.331 31.0281C168.426 31.1068 168.505 31.2035 168.562 31.3126C168.62 31.4216 168.655 31.541 168.666 31.6638C168.678 31.7866 168.665 31.9104 168.628 32.0282C168.592 32.1459 168.532 32.2553 168.453 32.35C168.367 32.4534 168.26 32.5371 168.138 32.5954C168.017 32.6536 167.885 32.685 167.75 32.6875Z" fill="#101820"/>
<defs>
<filter id="filter0_i_113_525" x="0" y="0" width="204" height="54" filterUnits="userSpaceOnUse" color-interpolation-filters="sRGB">
<feFlood flood-opacity="0" result="BackgroundImageFix"/>
<feBlend mode="normal" in="SourceGraphic" in2="BackgroundImageFix" result="shape"/>
<feColorMatrix in="SourceAlpha" type="matrix" values="0 0 0 0 0 0 0 0 0 0 0 0 0 0 0 0 0 0 127 0" result="hardAlpha"/>
<feMorphology radius="2" operator="erode" in="SourceAlpha" result="effect1_innerShadow_113_525"/>
<feOffset dx="4" dy="4"/>
<feGaussianBlur stdDeviation="2"/>
<feComposite in2="hardAlpha" operator="arithmetic" k2="-1" k3="1"/>
<feColorMatrix type="matrix" values="0 0 0 0 0 0 0 0 0 0 0 0 0 0 0 0 0 0 0.25 0"/>
<feBlend mode="normal" in2="shape" result="effect1_innerShadow_113_525"/>
</filter>
</defs>
</svg>
