<?xml version="1.0" encoding="UTF-8" standalone="no"?>
<svg width="64px" height="64px" viewBox="0 0 64 64" version="1.1" xmlns="http://www.w3.org/2000/svg" xmlns:xlink="http://www.w3.org/1999/xlink" xmlns:sketch="http://www.bohemiancoding.com/sketch/ns">
    <!-- Generator: Sketch 3.0.3 (7891) - http://www.bohemiancoding.com/sketch -->
    <title>Button-circle-person</title>
    <desc>Created with Sketch.</desc>
    <defs></defs>
    <g id="Page-1" stroke="none" stroke-width="1" fill="none" fill-rule="evenodd" sketch:type="MSPage">
        <g id="Button-circle-person" sketch:type="MSLayerGroup" transform="translate(1.000000, 1.000000)" stroke="#6B6C6E" stroke-width="2">
            <circle id="Oval" sketch:type="MSShapeGroup" cx="31" cy="31" r="31"></circle>
            <path d="M31,5 C45.4,5 57,16.6 57,31" id="Shape" sketch:type="MSShapeGroup"></path>
            <path d="M31,57 C16.6,57 5,45.4 5,31" id="Shape" sketch:type="MSShapeGroup"></path>
            <path d="M25.8,36 C27.1,35.4 28.9,34.3 28.9,33.3 C28.9,32.8 28.7,32.4 28.5,32.3 C26,30.9 25.6,26.5 25.4,26.5 C24.6,26.5 24,24.4 24,23.1 C24,22 24.3,22 24.9,21.7 L24.9,21.5 C24.9,17.9 27.2,15 30.9,15 C34.6,15 37.2,18 37.2,21.6 L37.2,21.8 C37.8,22.1 38,22.3 38,23.4 C38,24.8 37.5,26.7 36.7,26.7 C36.5,26.7 35.9,31 33.5,32.4 C33.3,32.5 33.1,32.7 33.1,33.2 C33.1,34.4 35,35.4 36.3,36 C37.9,36.8 45,37.5 45,45 L16.9,45 C16.9,37.5 23.8,37 25.8,36 L25.8,36 Z" id="Shape" sketch:type="MSShapeGroup"></path>
        </g>
    </g>
</svg>