<svg width="30" height="30" viewBox="0 0 30 30" fill="none" xmlns="http://www.w3.org/2000/svg">
<circle cx="15" cy="15" r="15" fill="#282832"/>
<path d="M15 15.9167C15.8571 15.9167 16.6949 15.6625 17.4075 15.1864C18.1201 14.7102 18.6755 14.0334 19.0035 13.2416C19.3315 12.4498 19.4173 11.5785 19.2501 10.7379C19.0829 9.89736 18.6702 9.12523 18.0641 8.51921C17.4581 7.91318 16.686 7.50047 15.8454 7.33327C15.0048 7.16606 14.1335 7.25188 13.3417 7.57986C12.5499 7.90784 11.8731 8.46325 11.397 9.17586C10.9208 9.88848 10.6667 10.7263 10.6667 11.5833C10.6667 12.7326 11.1232 13.8348 11.9359 14.6475C12.7485 15.4601 13.8507 15.9167 15 15.9167Z" fill="#F9F9F9"/>
<path d="M21.5 26.75C21.7873 26.75 22.0629 26.6359 22.266 26.4327C22.4692 26.2295 22.5833 25.954 22.5833 25.6667C22.5833 23.6555 21.7844 21.7266 20.3622 20.3045C18.9401 18.8823 17.0112 18.0833 15 18.0833C12.9888 18.0833 11.0599 18.8823 9.63777 20.3045C8.21562 21.7266 7.41667 23.6555 7.41667 25.6667C7.41667 25.954 7.5308 26.2295 7.73397 26.4327C7.93713 26.6359 8.21268 26.75 8.5 26.75H21.5Z" fill="#F9F9F9"/>
<circle cx="15" cy="15" r="13" stroke="#282832" stroke-width="4"/>
</svg>
