<svg width="18" height="18" viewBox="0 0 18 18" fill="none" xmlns="http://www.w3.org/2000/svg">
<path d="M6.1875 12.375C5.07498 12.375 3.98745 12.0451 3.06242 11.427C2.13739 10.8089 1.41642 9.93043 0.99068 8.9026C0.564937 7.87476 0.453543 6.74376 0.670585 5.65262C0.887627 4.56148 1.42336 3.5592 2.21003 2.77253C2.9967 1.98586 3.99898 1.45013 5.09012 1.23309C6.18126 1.01604 7.31226 1.12744 8.3401 1.55318C9.36793 1.97892 10.2464 2.69989 10.8645 3.62492C11.4826 4.54995 11.8125 5.63748 11.8125 6.75C11.8125 8.24185 11.2199 9.67259 10.165 10.7275C9.11009 11.7824 7.67935 12.375 6.1875 12.375ZM6.1875 2.25C5.29749 2.25 4.42746 2.51392 3.68744 3.00839C2.94742 3.50286 2.37064 4.20566 2.03004 5.02793C1.68945 5.85019 1.60034 6.75499 1.77397 7.62791C1.9476 8.50082 2.37619 9.30265 3.00552 9.93198C3.63486 10.5613 4.43668 10.9899 5.3096 11.1635C6.18251 11.3372 7.08731 11.2481 7.90958 10.9075C8.73185 10.5669 9.43465 9.99009 9.92912 9.25007C10.4236 8.51005 10.6875 7.64002 10.6875 6.75C10.6875 5.55653 10.2134 4.41194 9.36948 3.56802C8.52557 2.72411 7.38098 2.25 6.1875 2.25Z" fill="#101820"/>
<path d="M15.7499 16.7287C15.353 16.7292 14.9686 16.5898 14.6643 16.335L11.2162 13.4437C11.0463 13.3011 10.9061 13.1265 10.8037 12.9298C10.7013 12.733 10.6387 12.5181 10.6193 12.2971C10.5803 11.8509 10.7201 11.4075 11.0081 11.0643C11.296 10.7212 11.7084 10.5065 12.1546 10.4675C12.6009 10.4285 13.0443 10.5683 13.3874 10.8562L16.8356 13.7475C17.1013 13.97 17.2921 14.269 17.3819 14.6038C17.4718 14.9386 17.4564 15.2929 17.3378 15.6186C17.2191 15.9443 17.0031 16.2256 16.719 16.4242C16.4349 16.6228 16.0966 16.7292 15.7499 16.7287ZM12.3018 11.5875H12.2512C12.1396 11.5968 12.0334 11.6393 11.9461 11.7094C11.8588 11.7796 11.7944 11.8741 11.7612 11.9811C11.7279 12.088 11.7274 12.2024 11.7596 12.3097C11.7917 12.4169 11.8552 12.5121 11.9418 12.5831L15.3899 15.4743C15.4464 15.522 15.5118 15.5581 15.5822 15.5805C15.6527 15.6029 15.7268 15.6113 15.8005 15.605C15.8742 15.5987 15.9459 15.578 16.0115 15.544C16.0772 15.51 16.1354 15.4634 16.1831 15.4068C16.2305 15.3502 16.2664 15.2848 16.2886 15.2144C16.3108 15.1439 16.3189 15.0698 16.3124 14.9962C16.3056 14.9222 16.2842 14.8504 16.2495 14.7847C16.2147 14.7191 16.1673 14.6609 16.1099 14.6137L12.6618 11.7168C12.5606 11.633 12.4332 11.5872 12.3018 11.5875Z" fill="#101820"/>
<path d="M11.25 11.8125C11.1185 11.8128 10.9912 11.767 10.89 11.6832L9.56246 10.5863C9.44759 10.4908 9.37535 10.3536 9.36163 10.2049C9.34792 10.0561 9.39386 9.90804 9.48933 9.79317C9.58481 9.6783 9.72201 9.60606 9.87075 9.59235C10.0195 9.57863 10.1676 9.62457 10.2825 9.72004L11.5987 10.8169C11.6557 10.8641 11.7027 10.9221 11.7373 10.9876C11.7718 11.053 11.793 11.1246 11.7998 11.1983C11.8066 11.272 11.7988 11.3463 11.7768 11.4169C11.7549 11.4876 11.7192 11.5532 11.6718 11.61C11.6202 11.6721 11.5557 11.7223 11.483 11.7572C11.4102 11.7922 11.3307 11.811 11.25 11.8125Z" fill="#101820"/>
</svg>
