<?xml version="1.0" standalone="no"?>
<!DOCTYPE svg PUBLIC "-//W3C//DTD SVG 20010904//EN"
 "http://www.w3.org/TR/2001/REC-SVG-20010904/DTD/svg10.dtd">
<svg version="1.0" xmlns="http://www.w3.org/2000/svg"
 width="896.000000pt" height="896.000000pt" viewBox="0 0 896.000000 896.000000"
 preserveAspectRatio="xMidYMid meet">
<metadata>
Created by potrace 1.14, written by Peter Selinger 2001-2017
</metadata>
<g transform="translate(0.000000,896.000000) scale(0.100000,-0.100000)"
fill="#000000" stroke="none">
<path d="M4460 8861 c0 -12 -61 -105 -72 -109 -4 -2 -8 -10 -8 -18 0 -8 -4
-14 -10 -14 -5 0 -10 -7 -10 -15 0 -8 -3 -15 -8 -15 -4 0 -12 -9 -17 -20 -16
-33 -258 -385 -267 -388 -4 -2 -8 -8 -8 -13 0 -8 -156 -244 -187 -284 -5 -5
-35 -50 -68 -100 -32 -49 -62 -92 -65 -95 -3 -3 -59 -86 -125 -185 -66 -99
-122 -182 -125 -185 -5 -5 -36 -50 -55 -82 -37 -60 -240 -354 -247 -356 -4 -2
-6 -8 -2 -13 3 -5 0 -9 -5 -9 -6 0 -11 -6 -11 -14 0 -8 -4 -16 -9 -18 -4 -1
-44 -57 -87 -123 -43 -66 -81 -122 -84 -125 -3 -3 -27 -39 -54 -80 -28 -41
-63 -92 -79 -112 -16 -21 -25 -38 -20 -38 4 0 3 -4 -3 -8 -6 -4 -40 -50 -75
-102 -35 -52 -67 -96 -71 -98 -5 -2 -8 -8 -8 -13 0 -11 -42 -72 -52 -77 -5 -2
-8 -8 -8 -13 0 -8 -58 -97 -70 -109 -4 -3 -28 -39 -55 -80 -27 -41 -53 -76
-57 -78 -4 -2 -8 -10 -8 -18 0 -8 -4 -14 -10 -14 -5 0 -10 -5 -10 -11 0 -11
-50 -82 -62 -87 -5 -2 -8 -8 -8 -13 0 -5 -45 -75 -100 -155 -55 -80 -100 -149
-100 -154 0 -5 -3 -10 -7 -12 -11 -5 -53 -66 -53 -77 0 -5 -3 -11 -7 -13 -5
-1 -26 -30 -48 -63 -22 -33 -43 -62 -46 -65 -3 -3 -14 -20 -24 -37 -11 -18
-23 -33 -27 -33 -4 0 -8 -6 -8 -14 0 -8 -6 -21 -13 -28 -7 -7 -44 -60 -82
-118 -38 -58 -72 -107 -75 -110 -3 -3 -45 -66 -95 -140 -49 -74 -106 -158
-127 -186 -21 -28 -38 -54 -38 -57 0 -3 -21 -36 -48 -73 -26 -36 -56 -80 -67
-98 -31 -49 -119 -180 -125 -186 -3 -3 -23 -32 -45 -65 -21 -33 -42 -61 -47
-63 -4 -2 -8 -8 -8 -12 0 -5 -18 -35 -40 -67 -22 -32 -45 -65 -50 -73 -6 -8
-55 -80 -111 -160 -55 -80 -102 -153 -106 -162 -3 -10 -9 -18 -14 -18 -5 0 -9
-6 -9 -14 0 -8 -3 -16 -7 -18 -5 -1 -30 -37 -58 -78 -27 -41 -52 -77 -55 -80
-3 -3 -21 -29 -39 -58 -19 -30 -41 -60 -48 -68 -8 -8 -11 -14 -7 -14 4 0 -2
-10 -13 -22 -10 -13 -37 -50 -58 -83 -22 -33 -43 -64 -48 -70 -5 -5 -30 -42
-55 -81 -53 -80 -123 -184 -134 -199 -8 -9 -34 -49 -115 -170 -18 -27 -36 -54
-41 -60 -4 -5 -22 -32 -40 -59 l-33 -48 23 -17 c39 -28 321 -221 378 -259 30
-20 56 -40 58 -44 2 -4 18 -15 35 -23 18 -8 46 -27 62 -41 17 -14 39 -30 50
-35 11 -5 38 -23 60 -39 41 -31 65 -47 340 -235 88 -60 162 -111 165 -114 12
-14 250 -171 257 -170 4 0 55 72 113 161 58 88 111 166 118 174 6 7 12 15 12
18 0 7 81 127 97 144 6 6 15 21 18 32 3 11 10 20 15 20 5 0 12 9 15 20 3 11
12 26 19 32 6 7 23 31 36 53 13 22 26 42 29 45 4 3 37 52 75 109 37 57 72 109
77 115 5 6 63 92 129 191 65 99 123 185 127 190 4 6 39 57 78 115 38 58 72
107 76 110 3 3 8 10 10 15 7 19 124 190 132 193 4 2 7 10 7 18 0 8 5 14 10 14
6 0 10 6 10 13 0 7 9 23 20 35 11 12 20 26 20 32 0 5 5 10 10 10 6 0 10 7 10
15 0 8 5 15 10 15 6 0 10 7 10 15 0 8 5 15 10 15 6 0 10 6 10 14 0 8 3 16 8
18 10 5 52 66 52 77 0 5 3 11 8 13 10 5 212 306 212 317 0 6 6 14 13 18 6 4
46 60 87 123 41 63 77 117 80 120 10 9 505 749 518 775 7 14 17 25 23 25 5 0
9 5 9 11 0 6 11 25 25 43 14 18 25 36 25 39 0 4 7 15 15 24 8 10 143 209 299
443 157 234 290 431 296 438 7 7 10 19 7 26 -3 7 -1 19 4 27 6 10 9 6 9 -14 0
-18 32 -75 92 -165 51 -75 96 -138 100 -140 4 -2 8 -9 8 -16 0 -7 8 -21 18
-32 9 -10 23 -31 31 -46 8 -15 22 -37 33 -47 10 -11 18 -22 18 -25 0 -8 104
-161 113 -164 4 -2 7 -10 7 -18 0 -8 3 -14 8 -14 4 0 18 -20 32 -45 14 -25 28
-45 31 -45 4 0 12 -13 19 -30 7 -16 16 -30 21 -30 5 0 9 -6 9 -14 0 -8 3 -16
8 -18 10 -5 52 -66 52 -77 0 -5 3 -11 8 -13 10 -5 92 -125 92 -137 0 -5 3 -11
8 -13 10 -5 132 -185 132 -197 0 -5 4 -11 8 -13 4 -1 62 -84 129 -183 66 -99
176 -263 244 -365 68 -102 127 -186 131 -188 5 -2 8 -7 8 -12 0 -4 63 -102
141 -217 77 -114 146 -217 151 -228 6 -11 14 -22 18 -25 4 -3 19 -25 35 -49
15 -25 32 -49 37 -55 5 -6 33 -49 63 -95 31 -47 60 -88 66 -92 6 -3 10 -9 9
-13 -2 -7 86 -141 108 -164 6 -7 12 -20 12 -28 0 -8 4 -14 10 -14 5 0 19 -17
30 -37 11 -21 54 -87 95 -146 41 -59 75 -112 75 -117 0 -4 3 -10 8 -12 8 -3
112 -156 112 -164 0 -3 11 -17 25 -32 14 -15 25 -32 25 -37 0 -6 13 -26 30
-45 16 -19 29 -38 30 -41 0 -5 165 -256 187 -284 36 -48 113 -166 113 -174 0
-6 5 -11 10 -11 6 0 10 -5 10 -10 0 -6 8 -20 18 -31 11 -10 25 -32 33 -47 8
-15 19 -32 24 -38 6 -6 41 -58 79 -116 l69 -104 61 40 c34 22 63 44 64 48 2 4
10 8 17 8 7 0 15 3 17 8 2 4 30 26 63 48 33 23 89 61 125 85 36 24 67 46 70
49 3 3 25 19 50 35 25 16 47 32 50 35 3 3 46 32 95 65 50 33 92 63 95 66 3 3
39 27 80 55 41 27 80 52 85 57 34 26 165 116 193 132 17 11 32 23 32 27 0 4 4
8 9 8 7 0 256 168 319 215 4 3 -311 470 -320 473 -4 2 -8 8 -8 13 0 9 -38 69
-51 79 -3 3 -13 19 -22 37 -9 17 -22 37 -29 45 -24 25 -78 106 -78 116 0 6 -3
12 -7 14 -5 1 -44 57 -88 123 -44 66 -84 123 -90 127 -6 5 -6 8 -1 8 6 0 3 6
-5 12 -9 7 -37 47 -65 88 -27 41 -52 80 -57 85 -25 33 -118 172 -124 185 -4 8
-9 17 -13 20 -3 3 -14 18 -24 35 -11 16 -23 34 -28 40 -17 20 -218 320 -225
335 -4 8 -9 17 -12 20 -4 3 -24 32 -46 65 -22 33 -43 62 -47 63 -5 2 -8 9 -8
16 0 7 -9 21 -20 31 -11 10 -20 24 -20 32 0 7 -4 13 -10 13 -5 0 -10 7 -10 15
0 9 -7 18 -15 21 -8 4 -15 10 -15 16 0 5 -11 24 -25 42 -14 18 -25 38 -25 44
0 6 -4 12 -8 14 -4 2 -41 53 -82 113 -40 61 -106 157 -144 215 -39 58 -74 107
-78 108 -5 2 -8 8 -8 13 0 6 -17 33 -37 62 -21 29 -42 60 -48 69 -5 9 -64 96
-130 192 -66 97 -124 184 -130 194 -5 9 -13 19 -16 22 -3 3 -14 20 -24 38 -11
17 -23 32 -27 32 -4 0 -8 5 -8 10 0 11 -74 122 -97 148 -7 7 -13 17 -13 21 0
4 -9 19 -20 32 -11 13 -23 29 -28 34 -4 6 -11 17 -15 25 -3 8 -47 74 -97 145
-50 72 -96 141 -103 155 -6 14 -17 30 -22 35 -6 6 -33 44 -60 85 -27 41 -53
77 -57 78 -4 2 -8 10 -8 18 0 8 -4 14 -10 14 -5 0 -10 7 -10 15 0 8 -5 15 -11
15 -5 0 -8 4 -5 9 4 5 2 11 -3 13 -4 1 -70 95 -146 208 -76 113 -142 207 -147
208 -4 2 -6 8 -2 13 3 5 -2 12 -10 15 -9 3 -16 10 -16 16 0 5 -20 38 -45 74
-25 35 -45 68 -45 74 0 5 -4 10 -8 10 -5 0 -17 16 -28 35 -10 19 -21 35 -25
35 -4 0 -12 14 -19 30 -7 17 -16 30 -21 30 -5 0 -9 6 -9 14 0 8 -3 16 -7 18
-12 5 -53 66 -53 78 0 5 -4 10 -8 10 -4 0 -16 15 -27 33 -10 17 -21 34 -24 37
-3 3 -10 13 -16 22 -5 10 -82 124 -170 253 -88 130 -164 243 -170 253 -5 9
-12 19 -15 22 -3 3 -61 88 -129 190 -69 102 -127 187 -130 190 -3 3 -12 17
-20 32 -8 15 -22 37 -33 47 -10 11 -18 22 -18 25 0 4 -68 106 -210 314 -41 60
-69 92 -81 92 -11 0 -19 -4 -19 -9z m29 -80 c-1 -43 1 -83 5 -90 4 -6 2 -11
-3 -11 -13 0 -12 -5 -14 98 -1 45 2 82 6 82 5 0 7 -35 6 -79z m0 -154 c-2 -24
1 -48 5 -55 4 -7 2 -12 -3 -12 -12 0 -12 -2 -14 63 -1 26 2 47 6 47 5 0 7 -19
6 -43z m0 -120 c-2 -24 1 -48 5 -55 4 -7 2 -12 -3 -12 -12 0 -12 -2 -14 63 -1
26 2 47 6 47 5 0 7 -19 6 -43z m0 -120 c-2 -24 1 -48 5 -55 4 -7 2 -12 -3 -12
-12 0 -12 -2 -14 63 -1 26 2 47 6 47 5 0 7 -19 6 -43z m6 -87 c3 -5 2 -10 -4
-10 -5 0 -13 5 -16 10 -3 6 -2 10 4 10 5 0 13 -4 16 -10z m-6 -68 c-1 -26 1
-53 5 -60 4 -7 2 -12 -3 -12 -12 0 -13 3 -13 65 0 53 0 55 8 55 3 0 4 -22 3
-48z m0 -125 c-2 -24 1 -48 5 -55 4 -7 2 -12 -3 -12 -12 0 -12 -2 -14 63 -1
26 2 47 6 47 5 0 7 -19 6 -43z m0 -120 c-2 -24 1 -48 5 -55 4 -7 2 -12 -3 -12
-12 0 -12 -2 -14 63 -1 26 2 47 6 47 5 0 7 -19 6 -43z m1 -119 c0 -23 -2 -39
-5 -36 -9 9 -12 78 -3 78 4 0 8 -19 8 -42z m5 -58 c3 -5 -1 -10 -10 -10 -9 0
-13 5 -10 10 3 6 8 10 10 10 2 0 7 -4 10 -10z m-5 -61 c0 -22 -4 -38 -8 -35
-6 4 -7 26 -3 69 1 4 3 7 6 7 3 0 5 -18 5 -41z m2 -98 c-5 -45 -19 -49 -16 -4
1 15 3 34 3 41 1 7 5 11 9 8 4 -2 6 -23 4 -45z m-3 -79 c-2 -15 0 -33 4 -40 5
-6 4 -12 -2 -12 -12 0 -13 5 -13 45 0 32 1 35 8 35 3 0 4 -12 3 -28z m0 -105
c-2 -24 1 -48 5 -55 4 -7 2 -12 -3 -12 -12 0 -12 -2 -14 63 -1 26 2 47 6 47 5
0 7 -19 6 -43z m0 -120 c-2 -24 1 -48 5 -55 4 -7 2 -12 -3 -12 -12 0 -12 -2
-14 63 -1 26 2 47 6 47 5 0 7 -19 6 -43z m0 -120 c-2 -24 1 -48 5 -55 4 -7 2
-12 -3 -12 -12 0 -12 -2 -14 63 -1 26 2 47 6 47 5 0 7 -19 6 -43z m0 -120 c-2
-24 1 -48 5 -55 4 -7 2 -12 -3 -12 -12 0 -12 -2 -14 63 -1 26 2 47 6 47 5 0 7
-19 6 -43z m6 -87 c3 -5 2 -10 -4 -10 -5 0 -13 5 -16 10 -3 6 -2 10 4 10 5 0
13 -4 16 -10z m-6 -68 c-1 -26 1 -53 5 -60 4 -7 2 -12 -3 -12 -12 0 -13 3 -13
65 0 53 0 55 8 55 3 0 4 -22 3 -48z m0 -125 c-2 -24 1 -48 5 -55 4 -7 2 -12
-3 -12 -12 0 -12 -2 -14 63 -1 26 2 47 6 47 5 0 7 -19 6 -43z m0 -120 c-2 -24
1 -48 5 -55 4 -7 2 -12 -3 -12 -12 0 -12 -2 -14 63 -1 26 2 47 6 47 5 0 7 -19
6 -43z m1 -119 c0 -23 -2 -39 -5 -36 -9 9 -12 78 -3 78 4 0 8 -19 8 -42z m5
-58 c3 -5 -1 -10 -10 -10 -9 0 -13 5 -10 10 3 6 8 10 10 10 2 0 7 -4 10 -10z
m-5 -61 c0 -22 -4 -38 -8 -35 -6 4 -7 26 -3 69 1 4 3 7 6 7 3 0 5 -18 5 -41z
m2 -98 c-5 -45 -19 -49 -16 -4 1 15 3 34 3 41 1 7 5 11 9 8 4 -2 6 -23 4 -45z
m-3 -79 c-2 -15 0 -33 4 -40 5 -6 4 -12 -2 -12 -12 0 -13 5 -13 45 0 32 1 35
8 35 3 0 4 -12 3 -28z m0 -105 c-2 -24 1 -48 5 -55 4 -7 2 -12 -3 -12 -12 0
-12 -2 -14 63 -1 26 2 47 6 47 5 0 7 -19 6 -43z m0 -120 c-2 -24 1 -48 5 -55
4 -7 2 -12 -3 -12 -12 0 -12 -2 -14 63 -1 26 2 47 6 47 5 0 7 -19 6 -43z m1
-118 c0 -22 -4 -38 -8 -35 -6 4 -7 26 -3 69 1 4 3 7 6 7 3 0 5 -18 5 -41z m5
-59 c3 -5 -1 -10 -10 -10 -9 0 -13 5 -10 10 3 6 8 10 10 10 2 0 7 -4 10 -10z"/>
<path d="M4431 2734 c-18 -30 -37 -54 -42 -54 -5 0 -8 -3 -6 -8 1 -4 -4 -14
-11 -22 -12 -14 -629 -895 -662 -945 -8 -12 -44 -65 -81 -116 -284 -407 -353
-505 -361 -510 -6 -3 -8 -8 -6 -10 1 -2 -9 -20 -23 -39 -64 -87 -127 -177
-137 -196 -11 -20 -7 -24 41 -44 28 -13 72 -32 97 -43 25 -11 47 -21 50 -22 3
-1 23 -9 45 -19 22 -10 69 -31 105 -46 36 -15 103 -44 150 -65 47 -20 99 -42
115 -50 17 -7 46 -20 65 -28 19 -9 58 -25 85 -37 66 -29 96 -43 180 -80 39
-18 75 -33 80 -34 6 -1 30 -12 55 -23 25 -12 73 -33 108 -47 34 -15 92 -40
128 -56 36 -17 69 -28 74 -25 5 3 11 1 14 -3 7 -11 56 -3 56 9 0 5 5 9 11 9
11 0 98 37 217 91 35 16 65 29 67 29 4 0 41 16 150 65 100 45 264 116 275 120
13 4 67 27 116 50 30 14 82 36 115 50 87 37 191 84 211 95 10 6 25 10 33 10 8
0 15 4 15 8 0 4 10 8 21 9 12 1 29 9 38 17 10 9 25 16 34 16 9 0 18 4 21 9 3
5 -55 95 -129 201 -74 105 -135 194 -135 197 0 2 -6 11 -12 18 -20 22 -30 35
-77 105 -25 36 -50 68 -55 72 -6 4 -7 8 -2 8 5 0 0 10 -11 23 -11 12 -42 54
-68 92 -27 39 -73 106 -104 150 -30 44 -59 82 -63 83 -4 2 -8 10 -8 18 0 8 -4
14 -10 14 -5 0 -10 4 -10 10 0 5 -21 38 -47 74 -27 35 -82 113 -123 173 -41
59 -78 113 -82 118 -5 6 -52 73 -105 150 -54 77 -102 145 -108 152 -5 7 -57
82 -115 167 -58 85 -108 155 -112 156 -5 0 -8 -34 -8 -77 0 -42 -3 -73 -7 -70
-3 4 -6 39 -6 77 1 39 -2 72 -6 74 -3 2 -21 -20 -40 -50z m64 -124 c3 -5 2
-10 -4 -10 -5 0 -13 5 -16 10 -3 6 -2 10 4 10 5 0 13 -4 16 -10z m-6 -63 c-2
-24 1 -48 5 -55 4 -7 2 -12 -3 -12 -12 0 -12 -2 -14 63 -1 26 2 47 6 47 5 0 7
-19 6 -43z m0 -120 c-2 -24 1 -48 5 -55 4 -7 2 -12 -3 -12 -12 0 -12 -2 -14
63 -1 26 2 47 6 47 5 0 7 -19 6 -43z m0 -120 c-2 -24 1 -48 5 -55 4 -7 2 -12
-3 -12 -12 0 -12 -2 -14 63 -1 26 2 47 6 47 5 0 7 -19 6 -43z m0 -120 c-2 -24
1 -48 5 -55 4 -7 2 -12 -3 -12 -12 0 -12 -2 -14 63 -1 26 2 47 6 47 5 0 7 -19
6 -43z m0 -120 c-2 -24 1 -48 5 -55 4 -7 2 -12 -3 -12 -12 0 -12 -2 -14 63 -1
26 2 47 6 47 5 0 7 -19 6 -43z m1 -482 c-1 -223 2 -410 5 -415 3 -6 1 -10 -4
-10 -14 0 -12 -41 -14 427 -1 222 1 403 6 403 4 0 7 -182 7 -405z m-1 -478
c-2 -24 1 -48 5 -55 4 -7 2 -12 -3 -12 -12 0 -12 -2 -14 63 -1 26 2 47 6 47 5
0 7 -19 6 -43z m0 -120 c-2 -24 1 -48 5 -55 4 -7 2 -12 -3 -12 -12 0 -12 -2
-14 63 -1 26 2 47 6 47 5 0 7 -19 6 -43z m0 -120 c-2 -24 1 -48 5 -55 4 -7 2
-12 -3 -12 -12 0 -12 -2 -14 63 -1 26 2 47 6 47 5 0 7 -19 6 -43z m0 -120 c-2
-24 1 -48 5 -55 4 -7 2 -12 -3 -12 -12 0 -12 -2 -14 63 -1 26 2 47 6 47 5 0 7
-19 6 -43z m0 -120 c-2 -24 1 -48 5 -55 4 -7 2 -12 -3 -12 -12 0 -12 -2 -14
63 -1 26 2 47 6 47 5 0 7 -19 6 -43z m0 -120 c-2 -24 1 -48 5 -55 4 -7 2 -12
-3 -12 -12 0 -12 -2 -14 63 -1 26 2 47 6 47 5 0 7 -19 6 -43z m0 -120 c-2 -24
1 -48 5 -55 4 -7 4 -12 -1 -12 -4 0 -7 -20 -5 -45 2 -25 0 -45 -4 -45 -5 0 -9
45 -9 100 0 55 4 100 8 100 5 0 7 -19 6 -43z"/>
</g>
</svg>
